#!OML:ASF X:\für Bonn\!DataBase\2005_08_10_Bjorn_Final\c3d\bjorn.ASF
:FULLY-SPECIFIED
:DEGREES
92
root -21.6919 18.6447 -21.5821 -352.515 361.495 -366.8
lowerback 1.51527 -1.77712 2.52257
upperback 10.9542 -2.46466 -0.517992
thorax 10.6752 -0.943795 -2.14749
lowerneck -4.05819 4.25302 2.3553
upperneck -1.13739 5.58085 -0.790923
head 0.406586 2.78381 -0.536711
rclavicle -3.97569e-015 2.14687e-014
rhumerus -56.6248 14.3683 -98.7723
rradius 66.0086
rwrist -30.0668
rhand -25.4802 16.7477
rfingers 7.12502
rthumb 1.04774 -13.2294
lclavicle -3.97569e-015 2.14687e-014
lhumerus -18.6616 -28.0004 87.8069
lradius 95.4013
lwrist -3.53959
lhand -42.3853 -18.2054
lfingers 7.12502
lthumb -15.2664 11.2112
rfemur -43.8855 -8.95999 22.5737
rtibia 49.4937
rfoot -6.10974 19.2159
rtoes -26.5404
lfemur 16.6211 1.45776 -14.5262
ltibia 21.044
lfoot -0.975178 -7.54062
ltoes -23.969
93
root -21.6937 18.6573 -21.3508 -352.513 361.75 -367.207
lowerback 1.35055 -1.8875 2.91666
upperback 10.8636 -2.66106 -0.21644
thorax 10.66 -1.02183 -2.0622
lowerneck -4.03153 4.30876 2.2492
upperneck -0.919942 5.6606 -0.984213
head 0.47371 2.82317 -0.574862
rclavicle -3.57812e-014 3.26007e-014
rhumerus -56.0266 14.1584 -98.2213
rradius 66.5349
rwrist -29.5414
rhand -25.9871 16.7713
rfingers 7.12502
rthumb 0.558216 -13.2077
lclavicle -3.57812e-014 3.26007e-014
lhumerus -19.7211 -28.5388 88.2886
lradius 94.5252
lwrist -2.71297
lhand -42.6909 -19.0413
lfingers 7.12502
lthumb -15.5606 10.3527
rfemur -42.9462 -8.99289 23.0545
rtibia 48.8165
rfoot -5.80064 18.9791
rtoes -26.7086
lfemur 16.0455 1.15638 -13.996
ltibia 23.0622
lfoot 0.57435 -7.48826
ltoes -25.2851
94
root -21.6962 18.6628 -21.1212 -352.499 362.019 -367.615
lowerback 1.18761 -1.99831 3.28525
upperback 10.7971 -2.86016 0.104164
thorax 10.6738 -1.10382 -1.94359
lowerneck -4.17213 4.36962 2.14091
upperneck -0.664146 5.74496 -1.21067
head 0.581996 2.86377 -0.618535
rclavicle -1.43125e-014 1.74931e-014
rhumerus -55.2252 13.9199 -97.6692
rradius 66.9662
rwrist -28.9332
rhand -26.4694 17.1106
rfingers 7.12502
rthumb 0.0923941 -12.8691
lclavicle -1.43125e-014 1.74931e-014
lhumerus -20.7578 -29.0353 88.8328
lradius 93.559
lwrist -1.94578
lhand -43.1534 -20.2039
lfingers 7.12502
lthumb -16.0061 9.15489
rfemur -41.9606 -9.02297 23.5322
rtibia 48.2269
rfoot -5.62075 18.7556
rtoes -25.8047
lfemur 15.2745 0.84621 -13.4648
ltibia 25.4026
lfoot 2.09411 -7.28498
ltoes -26.1597
95
root -21.6972 18.6598 -20.8949 -352.542 362.29 -368.042
lowerback 1.06969 -2.08251 3.7254
upperback 10.7732 -3.02638 0.412999
thorax 10.7085 -1.16158 -1.8742
lowerneck -4.2332 4.40876 1.94238
upperneck -0.643746 5.8063 -1.33184
head 0.597356 2.89342 -0.620217
rclavicle -1.55052e-014 3.26007e-014
rhumerus -54.2714 13.5709 -97.0911
rradius 67.3959
rwrist -28.3086
rhand -26.7938 17.6409
rfingers 7.12502
rthumb -0.22093 -12.3387
lclavicle -1.55052e-014 3.26007e-014
lhumerus -21.7497 -29.596 89.361
lradius 92.5033
lwrist -1.22991
lhand -43.688 -21.7933
lfingers 7.12502
lthumb -16.5208 7.52341
rfemur -40.8937 -9.00504 23.9959
rtibia 47.7575
rfoot -5.74407 18.51
rtoes -24.1001
lfemur 14.4146 0.478435 -12.9613
ltibia 27.9901
lfoot 3.60151 -6.76365
ltoes -26.676
96
root -21.6969 18.6491 -20.6719 -352.591 362.55 -368.46
lowerback 1.03033 -2.16336 4.15788
upperback 10.7032 -3.18379 0.734517
thorax 10.6449 -1.21958 -1.7818
lowerneck -4.15708 4.43999 1.69006
upperneck -0.70742 5.8616 -1.44928
head 0.561721 2.92058 -0.616212
rclavicle -2.26615e-014 9.54166e-015
rhumerus -53.2895 13.2549 -96.4841
rradius 67.8433
rwrist -27.6474
rhand -27.046 18.2308
rfingers 7.12502
rthumb -0.464544 -11.7485
lclavicle -2.26615e-014 9.54166e-015
lhumerus -22.8891 -30.0685 90.0542
lradius 91.4717
lwrist -0.68472
lhand -44.3139 -23.4232
lfingers 7.12502
lthumb -17.1234 5.84224
rfemur -39.8249 -8.9674 24.4352
rtibia 47.4385
rfoot -6.14864 18.3702
rtoes -22.4177
lfemur 13.4808 0.116837 -12.4805
ltibia 30.73
lfoot 5.04669 -5.99896
ltoes -26.7818
97
root -21.6921 18.6298 -20.4515 -352.663 362.72 -368.878
lowerback 0.989611 -2.19737 4.63964
upperback 10.6716 -3.28028 1.03159
thorax 10.627 -1.24057 -1.73898
lowerneck -4.19125 4.45712 1.50044
upperneck -0.690209 5.89423 -1.63467
head 0.573627 2.9353 -0.640212
rclavicle -5.96354e-015 7.15625e-015
rhumerus -52.196 12.9362 -95.8688
rradius 68.3655
rwrist -27.0253
rhand -27.0836 18.764
rfingers 7.12502
rthumb -0.500795 -11.2151
lclavicle -5.96354e-015 7.15625e-015
lhumerus -23.9572 -30.6118 90.7502
lradius 90.4795
lwrist -0.29213
lhand -45.1758 -24.9587
lfingers 7.12502
lthumb -17.9529 4.23274
rfemur -38.765 -8.86998 24.8319
rtibia 47.2868
rfoot -6.82384 18.3726
rtoes -20.7661
lfemur 12.5257 -0.180479 -12.0561
ltibia 33.5675
lfoot 6.39276 -4.8135
ltoes -26.5515
98
root -21.6847 18.6029 -20.2326 -352.799 362.83 -369.178
lowerback 1.04028 -2.19878 5.02953
upperback 10.6666 -3.31819 1.2703
thorax 10.5887 -1.23849 -1.69964
lowerneck -4.35567 4.46238 1.43993
upperneck -0.529051 5.90596 -1.90606
head 0.659057 2.93736 -0.707427
rclavicle 2.78299e-015 -2.06736e-014
rhumerus -51.0153 12.55 -95.3053
rradius 68.9317
rwrist -26.3094
rhand -26.9446 19.2126
rfingers 7.12502
rthumb -0.366626 -10.7668
lclavicle 2.78299e-015 -2.06736e-014
lhumerus -25.0963 -31.1992 91.4735
lradius 89.6655
lwrist -0.118052
lhand -46.1979 -26.3467
lfingers 7.12502
lthumb -18.936 2.75158
rfemur -37.6758 -8.73768 25.0604
rtibia 47.2936
rfoot -7.80853 18.473
rtoes -19.6073
lfemur 11.6243 -0.399813 -11.7881
ltibia 36.472
lfoot 7.45542 -3.20597
ltoes -26.9003
99
root -21.6766 18.5645 -20.015 -353.006 362.928 -369.42
lowerback 1.1787 -2.18973 5.35064
upperback 10.6879 -3.33171 1.49953
thorax 10.5321 -1.23067 -1.62709
lowerneck -4.54975 4.45163 1.27923
upperneck -0.399716 5.90145 -2.10689
head 0.733788 2.93145 -0.736815
rclavicle 2.18663e-014 -3.97569e-015
rhumerus -49.8559 12.1176 -94.7583
rradius 69.5935
rwrist -25.3848
rhand -26.6962 19.6114
rfingers 7.12502
rthumb -0.126707 -10.3683
lclavicle 2.18663e-014 -3.97569e-015
lhumerus -26.2885 -31.7345 92.2763
lradius 88.9106
lwrist -0.12754
lhand -47.2829 -27.5494
lfingers 7.12502
lthumb -19.9792 1.44352
rfemur -36.5511 -8.59539 25.1953
rtibia 47.4389
rfoot -8.96942 18.6358
rtoes -18.3515
lfemur 10.7496 -0.539109 -11.5576
ltibia 39.4503
lfoot 8.24731 -1.27373
ltoes -27.0048
